<svg id="ICON" xmlns="http://www.w3.org/2000/svg" viewBox="0 0 500 500">

  <title>Settler's Default Icon</title>

  <style>@media (prefers-color-scheme: dark) { .bg {fill: #dadada} .type {fill: #1d1d1b} }</style>

  <circle class="bg" cx="250" cy="250" r="250" style="fill: #1d1d1b"/>

  <g>
    <path class="type" d="M125.9,281.3a47.57,47.57,0,0,0,.8,9.1,15.84,15.84,0,0,0,3,6.9,14.74,14.74,0,0,0,5.9,4.4,23.48,23.48,0,0,0,9.3,1.6,18.39,18.39,0,0,0,11.9-4.3q5.3-4.3,5.3-13.3a23.87,23.87,0,0,0-1.3-8.3,16.44,16.44,0,0,0-4.3-6.3,30.59,30.59,0,0,0-7.9-5.1,113.92,113.92,0,0,0-12.1-4.7,103.3,103.3,0,0,1-16.6-7,44.66,44.66,0,0,1-11.7-8.9,31.83,31.83,0,0,1-6.9-11.8,49.62,49.62,0,0,1-2.2-15.5q0-21.2,11.8-31.6t32.4-10.4a70.4,70.4,0,0,1,17.7,2.1,37.12,37.12,0,0,1,14,6.8,31.85,31.85,0,0,1,9.2,12,42.26,42.26,0,0,1,3.3,17.5v4H159.9q0-10.2-3.6-15.7t-12-5.5a20,20,0,0,0-8,1.4,13.49,13.49,0,0,0-5.1,3.7,12.72,12.72,0,0,0-2.6,5.3,27.09,27.09,0,0,0-.7,6.2,20.61,20.61,0,0,0,2.8,11.1q2.8,4.5,12,8.3l22.2,9.6a68.08,68.08,0,0,1,13.4,7.5,36.63,36.63,0,0,1,8.3,8.4,28,28,0,0,1,4.3,9.9,55.43,55.43,0,0,1,1.2,12q0,22.6-13.1,32.9t-36.5,10.3q-24.4,0-34.9-10.6T97.1,282.9v-5.8h28.8Z" style="fill: #dadada"/>
    <path class="type" d="M248.1,284.5h.6l21.2-105.6h29.8L266.9,321.7h-37L197.1,178.9h30.8Z" style="fill: #dadada"/>
    <path class="type" d="M372.8,213.1a26.71,26.71,0,0,0-2.9-7.7,18.7,18.7,0,0,0-5.1-5.8,12.25,12.25,0,0,0-7.5-2.3q-10.4,0-15,11.6t-4.6,38.4q0,12.8.8,23.2a89.61,89.61,0,0,0,2.9,17.7q2.1,7.3,6,11.2a13.66,13.66,0,0,0,10.1,3.9,14,14,0,0,0,5.7-1.4,18.84,18.84,0,0,0,5.8-4.2,22.69,22.69,0,0,0,4.5-7.1,26,26,0,0,0,1.8-10.1V265.9h-19V244.7h46.6v77H381.7V308.5h-.4q-5.2,8.4-12.5,11.9a40.21,40.21,0,0,1-17.5,3.5q-13.2,0-21.5-4.6a31.42,31.42,0,0,1-13-14.2q-4.7-9.6-6.3-23.7a293.29,293.29,0,0,1-1.6-32.7,191.36,191.36,0,0,1,2.3-31.6q2.3-13.6,7.9-22.7a36.1,36.1,0,0,1,14.8-13.7q9.2-4.6,23-4.6,23.6,0,34,11.7t10.4,33.5H373.7A39.13,39.13,0,0,0,372.8,213.1Z" style="fill: #dadada"/>
  </g>
</svg>
